# xmcd CD database file
#
# Track frame offsets:
#	150
#	17576
#	33370
#	48599
#	62929
#	77440
#	95527
#	113237
#	131698
#	150296
#	166042
#	179919
#	190407
#	206845
#	221815
#
# Disc length: 3182 seconds
#
# Revision: 0
# Processed by: cddbd v1.5.2PL0 Copyright (c) Steve Scherf et al.
# Submitted via: CDex 1.51
#
DISCID=d10c6c0f
DTITLE=The BossHoss - Liberty Of Action
DYEAR=2011
DGENRE=Country
TTITLE0=Liberty of action
TTITLE1=Don't gimme that
TTITLE2=Live it up
TTITLE3=The answer
TTITLE4=I keep on dancing
TTITLE5=My way
TTITLE6=Still crazy 'bout Elvis
TTITLE7=Hayday
TTITLE8=My country
TTITLE9=Sex on legs
TTITLE10=Riding high, singing low
TTITLE11=Money (That's What I Want)
TTITLE12=Run run devil
TTITLE13=Killers
TTITLE14=L.O.V.E (The BossHoss and NENA feat Rubbeldiekatz)
EXTD=YEAR: 2011
EXTT0=
EXTT1=
EXTT2=
EXTT3=
EXTT4=
EXTT5=
EXTT6=
EXTT7=
EXTT8=
EXTT9=
EXTT10=
EXTT11=
EXTT12=
EXTT13=
EXTT14=
PLAYORDER=
